<?xml version="1.0" standalone="no"?>
<!DOCTYPE svg PUBLIC "-//W3C//DTD SVG 20010904//EN"
 "http://www.w3.org/TR/2001/REC-SVG-20010904/DTD/svg10.dtd">
<svg version="1.0" xmlns="http://www.w3.org/2000/svg"
 width="600.000000pt" height="600.000000pt" viewBox="0 0 600.000000 600.000000"
 preserveAspectRatio="xMidYMid meet">

<g transform="translate(0.000000,600.000000) scale(0.100000,-0.100000)"
fill="#000000" stroke="none">
<path d="M2860 5524 c-209 -37 -373 -136 -497 -299 -17 -22 -38 -54 -47 -72
-9 -19 -46 -52 -88 -81 -93 -61 -98 -78 -95 -288 l2 -151 -44 -34 c-84 -64
-151 -230 -197 -485 -45 -251 -43 -419 7 -581 l20 -64 -26 -27 c-56 -55 -70
-98 -70 -207 0 -78 4 -108 19 -135 39 -74 94 -116 168 -128 39 -7 41 -8 68
-83 36 -101 84 -173 155 -237 61 -54 61 -55 -9 -67 -32 -5 -54 -22 -120 -89
-93 -94 -131 -160 -123 -212 5 -27 -4 -54 -37 -127 -78 -166 -116 -332 -116
-506 0 -94 26 -271 50 -339 7 -18 9 -49 6 -70 -24 -139 43 -272 152 -302 27
-7 51 -25 80 -59 23 -27 82 -84 132 -127 53 -45 90 -84 90 -95 0 -71 209 -183
339 -180 31 0 126 1 211 1 282 1 470 41 658 141 58 31 100 48 111 44 26 -8
106 26 143 60 33 31 58 81 58 115 0 11 15 37 33 57 18 21 44 53 57 72 12 18
45 59 73 90 61 69 94 137 102 210 3 31 15 110 27 175 17 98 20 143 15 250 -4
72 -13 160 -21 196 -12 51 -13 76 -5 115 10 43 8 59 -11 115 -38 112 -95 190
-140 190 -16 0 -80 70 -80 88 0 5 26 19 58 30 66 25 154 98 181 151 32 63 40
128 26 210 -5 30 -20 54 -58 93 -29 29 -61 58 -72 64 -30 16 -30 40 0 75 81
97 94 240 30 325 -41 54 -137 101 -225 111 l-75 8 -5 45 c-3 25 -18 71 -33
101 -21 44 -27 70 -27 122 l0 66 63 73 c167 194 184 232 128 289 -34 33 -49
35 -146 14 -71 -14 -95 -9 -95 21 0 7 -23 43 -51 80 l-50 67 20 21 c10 11 38
58 61 103 182 358 45 792 -309 976 -110 58 -191 78 -326 82 -66 2 -131 2 -145
-1z m245 -29 c191 -34 356 -136 465 -287 40 -55 39 -72 -2 -64 -322 58 -574
33 -817 -81 -85 -40 -150 -82 -214 -137 -31 -27 -59 -47 -60 -45 -2 2 -36 52
-76 111 -85 127 -86 129 -10 231 162 216 440 322 714 272z m283 -346 c208 -22
261 -42 262 -96 0 -27 -8 -28 -80 -7 -36 10 -117 17 -230 21 -182 5 -303 -7
-413 -43 -47 -16 -49 -16 -73 7 -13 12 -24 28 -24 35 0 23 145 63 320 88 53 7
145 6 238 -5z m-973 -207 c106 -157 107 -165 32 -175 -23 -4 -54 -9 -68 -13
-24 -5 -31 2 -99 110 -40 64 -76 119 -81 122 -22 13 -4 41 44 72 28 18 57 31
63 30 7 -2 55 -67 109 -146z m413 88 l23 -30 -27 -12 c-24 -11 -29 -10 -51 17
-24 27 -24 29 -7 42 26 19 38 16 62 -17z m699 -9 c54 -11 110 -24 124 -29 27
-11 44 -38 30 -47 -5 -2 -58 5 -117 16 -161 31 -371 29 -574 -5 -85 -14 -182
-34 -215 -45 -33 -11 -61 -18 -62 -17 -4 4 147 73 202 93 150 55 427 70 612
34z m-772 -27 c9 -14 15 -27 13 -29 -7 -5 -47 -25 -52 -25 -3 0 -13 12 -23 26
-16 25 -16 27 2 40 27 20 40 17 60 -12z m-431 -311 c-13 -45 -15 -83 -11 -182
3 -69 9 -137 13 -150 27 -89 -111 119 -143 214 -21 65 -31 362 -13 396 12 21
17 15 91 -100 l79 -122 -16 -56z m351 270 c17 -26 17 -27 0 -38 -15 -8 -64
-45 -132 -98 -9 -6 -16 -1 -24 17 -11 24 -9 30 17 57 31 34 102 89 114 89 4 0
16 -12 25 -27z m640 -113 c19 -7 18 -8 -5 -13 -14 -4 -59 -11 -100 -17 -104
-16 -328 -73 -434 -110 -93 -33 -116 -33 -116 -1 0 42 103 88 290 130 89 20
325 28 365 11z m-805 -98 c0 -10 -6 -27 -14 -38 -12 -15 -17 -17 -27 -6 -20
19 -67 15 -79 -7 -14 -26 -13 -74 2 -106 10 -23 10 -28 -5 -36 -14 -8 -17 -25
-16 -92 0 -45 6 -100 13 -122 9 -33 16 -41 40 -43 28 -3 29 -3 21 30 -8 35
-23 210 -19 217 2 2 10 1 19 -2 11 -5 15 -22 15 -69 0 -35 8 -98 19 -140 10
-43 17 -79 15 -81 -2 -2 -30 1 -63 6 l-59 9 -18 62 c-23 77 -28 376 -6 398 7
7 36 18 65 24 80 17 97 17 97 -4z m-50 -50 c0 -5 -13 -18 -30 -30 l-30 -23 0
24 c0 13 3 27 7 30 9 10 53 9 53 -1z m178 -89 c2 -12 -9 -45 -24 -74 -26 -53
-26 -53 -40 -28 -16 29 -18 83 -3 110 15 28 63 22 67 -8z m-468 -71 c13 -31
41 -88 62 -125 l37 -68 -61 -63 -60 -64 -37 13 c-20 7 -62 24 -94 38 l-57 26
32 88 c44 124 102 213 137 213 10 0 26 -23 41 -58z m1271 -88 c21 -19 16 -42
-29 -129 -23 -45 -41 -67 -74 -86 -56 -33 -124 -58 -168 -61 -33 -3 -35 -1
-38 30 -4 36 38 180 63 214 l15 22 0 -24 c0 -21 2 -22 13 -8 6 8 21 21 32 27
18 10 17 11 -7 5 -17 -4 -28 -2 -28 4 0 17 20 20 114 21 68 1 94 -3 107 -15z
m-1112 -184 c30 -31 45 -40 72 -40 39 0 109 -56 109 -87 -1 -50 -30 -214 -45
-253 -22 -55 -33 -70 -52 -70 -8 0 -48 -14 -88 -31 -134 -55 -203 -141 -215
-269 l-6 -65 -34 70 c-30 63 -33 81 -38 185 -6 143 15 236 87 384 45 94 137
216 162 216 5 0 27 -18 48 -40z m1268 -8 c17 -26 36 -57 42 -69 13 -25 8 -29
-59 -54 -25 -9 -52 -19 -61 -23 -14 -6 -18 3 -24 59 -6 61 -5 68 20 100 14 19
31 35 38 35 7 0 26 -21 44 -48z m-1545 -24 c43 -18 78 -38 78 -44 0 -7 -8 -22
-18 -34 -17 -22 -19 -22 -50 -6 -42 21 -61 20 -89 -6 -45 -42 -22 -118 42
-134 29 -7 30 -11 10 -84 -20 -74 -30 -242 -18 -307 10 -52 10 -53 -23 -78
-18 -14 -37 -25 -42 -25 -4 0 -17 35 -28 78 -25 101 -25 344 0 477 29 158 39
195 50 195 6 0 46 -15 88 -32z m530 -49 c28 -16 71 -38 96 -47 47 -18 68 -42
35 -42 -21 0 -163 81 -182 104 -20 24 -4 19 51 -15z m898 -36 c0 -62 -11 -105
-24 -92 -3 2 -8 35 -12 73 -5 53 -4 70 7 77 26 16 29 9 29 -58z m-60 -2 c0
-10 3 -32 6 -49 5 -26 2 -32 -24 -46 -28 -14 -32 -14 -51 2 -34 29 -30 53 14
83 48 34 55 35 55 10z m465 -5 c0 -16 -12 -22 -70 -32 -189 -32 -242 -57 -315
-148 -46 -56 -83 -77 -102 -58 -12 12 46 95 118 167 35 34 53 43 105 54 35 7
91 19 124 26 33 7 78 12 100 12 32 -2 40 -6 40 -21z m-565 9 c0 -7 -78 -45
-92 -45 -7 1 7 12 32 25 45 24 60 29 60 20z m-1258 -22 c17 -15 25 -43 12 -43
-3 0 -14 10 -24 23 -15 18 -22 20 -37 11 -10 -6 -19 -23 -21 -38 -3 -22 1 -27
27 -32 35 -7 42 -24 11 -24 -46 0 -80 76 -48 108 17 17 58 15 80 -5z m512 2
c15 -12 17 -22 11 -67 -8 -59 -61 -215 -77 -224 -18 -11 -18 3 2 81 11 43 20
111 20 152 0 77 7 86 44 58z m271 -37 c69 -13 81 -27 40 -46 -32 -15 -65 -15
-102 -1 -34 13 -45 29 -31 46 13 16 13 16 93 1z m1055 -6 c0 -18 -110 -160
-212 -271 l-56 -62 -46 35 c-25 19 -64 45 -86 57 -22 12 -40 28 -40 33 0 15
104 129 136 151 31 20 223 72 272 74 24 1 32 -3 32 -17z m-1857 -7 c1 -5 -6
-11 -15 -13 -11 -2 -18 3 -18 13 0 17 30 18 33 0z m633 -4 c50 -23 59 -35 55
-80 -3 -47 -17 -61 -60 -61 -77 0 -97 21 -71 71 6 10 11 35 12 54 1 40 8 42
64 16z m554 -1 c11 -11 20 -31 20 -44 0 -14 5 -28 10 -31 6 -3 10 -19 10 -34
0 -40 -37 -50 -51 -14 -5 14 -7 34 -4 44 4 11 2 19 -4 19 -15 0 -53 58 -46 70
10 16 44 11 65 -10z m-83 -12 c28 -26 29 -35 6 -41 -14 -4 -12 -5 5 -6 39 -2
59 -92 25 -109 -26 -13 -43 -4 -43 23 0 56 -12 80 -56 108 -24 16 -42 33 -38
38 11 18 77 10 101 -13z m-107 -23 c7 -8 19 -15 27 -15 23 0 52 -42 53 -76 0
-43 -8 -47 -51 -22 -29 16 -39 28 -40 47 0 25 -1 25 -9 5 -10 -25 -56 -40 -75
-24 -11 9 -14 6 -12 -16 3 -36 -38 -54 -78 -36 -72 33 25 150 126 151 30 1 51
-4 59 -14z m286 -10 l32 -25 -28 -30 c-15 -16 -30 -30 -33 -30 -3 0 -7 15 -10
33 -3 17 -8 42 -12 55 -10 30 9 29 51 -3z m94 -10 c0 -8 -7 -15 -15 -15 -16 0
-20 12 -8 23 11 12 23 8 23 -8z m-602 -18 c8 -10 8 -19 -2 -33 -7 -10 -16 -32
-20 -49 -10 -38 -24 -55 -47 -55 -23 0 -23 5 -2 86 14 54 21 64 39 64 12 0 26
-6 32 -13z m567 -32 c0 -19 -33 -57 -44 -50 -15 8 -14 38 1 53 14 14 43 12 43
-3z m-740 -50 c27 -8 52 -12 57 -9 10 6 10 -17 0 -32 -4 -6 -27 -15 -52 -18
-25 -4 -57 -9 -72 -12 -32 -6 -34 0 -13 50 17 41 16 41 80 21z m390 -5 c4 -6
-5 -10 -19 -10 -14 0 -26 5 -26 10 0 6 9 10 19 10 11 0 23 -4 26 -10z m-176
-26 c18 -13 30 -15 60 -7 39 11 174 10 210 -2 32 -10 26 -42 -16 -94 -36 -43
-38 -49 -37 -113 0 -63 -1 -67 -24 -73 -33 -8 -36 -2 -18 34 18 34 21 61 6 61
-5 0 -10 -7 -10 -16 0 -45 -73 -104 -127 -104 -89 0 -139 140 -102 286 12 48
22 53 58 28z m411 -9 c-21 -22 -26 -23 -38 -11 -20 20 -6 36 30 36 l31 0 -23
-25z m129 -11 l34 -14 -34 -38 c-19 -20 -37 -41 -41 -46 -8 -10 -88 54 -88 71
0 7 10 22 22 33 24 22 41 21 107 -6z m-189 -24 c0 -5 -7 -10 -16 -10 -8 0 -12
5 -9 10 3 6 10 10 16 10 5 0 9 -4 9 -10z m307 -30 c65 -37 89 -70 73 -99 -13
-25 -41 -41 -70 -41 -29 0 -140 59 -140 75 0 18 58 95 73 95 6 0 36 -14 64
-30z m-747 -70 c10 -149 49 -197 154 -186 33 3 78 8 99 10 129 13 -110 -110
-320 -164 -37 -9 -48 -8 -84 11 -23 11 -85 37 -138 57 -120 44 -208 48 -285
14 -27 -12 -52 -22 -57 -22 -5 0 -9 21 -9 48 0 65 37 139 95 190 65 57 201
100 400 126 17 2 55 3 85 2 l55 -1 5 -85z m496 54 c40 -31 42 -39 12 -65 -33
-27 -42 -24 -67 21 -18 33 -20 44 -11 55 17 21 26 19 66 -11z m-81 -54 c20
-39 19 -45 -10 -58 -23 -11 -27 -9 -35 14 -18 47 -11 70 22 73 4 1 14 -12 23
-29z m220 -51 c83 -57 96 -85 50 -115 -37 -24 -76 -10 -142 52 l-58 55 35 29
c19 17 35 30 37 30 1 0 36 -23 78 -51z m270 -17 c-11 -89 -19 -102 -60 -102
-48 0 -127 -41 -187 -97 l-48 -46 -43 12 c-23 6 -59 19 -79 28 -49 21 -35 41
27 41 27 -1 55 6 72 17 17 12 42 18 64 16 47 -3 80 24 84 69 2 32 6 36 41 41
24 4 46 16 59 33 l22 27 16 -23 16 -23 0 22 c1 12 -4 25 -9 28 -16 10 -2 25
16 18 13 -5 15 -16 9 -61z m-551 -8 c4 -15 3 -31 -3 -37 -10 -10 -11 -8 -25
37 -5 14 2 26 15 26 4 0 10 -12 13 -26z m225 -107 c5 -14 -20 -27 -56 -27 -34
0 -78 31 -115 82 l-22 31 29 23 29 23 65 -61 c36 -34 68 -66 70 -71z m-165 12
c40 -41 39 -68 0 -55 -24 8 -68 71 -59 85 10 18 19 13 59 -30z m552 -4 c28
-69 10 -145 -36 -145 -28 0 -147 -48 -237 -94 -90 -47 -91 -47 -118 17 -25 60
-23 62 58 63 39 0 91 6 114 12 50 15 143 97 167 147 21 44 33 44 52 0z m-618
-26 c15 -24 10 -34 -13 -26 -15 6 -22 47 -7 47 4 0 13 -9 20 -21z m512 3 c0
-4 -17 -14 -37 -21 -21 -7 -62 -29 -91 -48 -50 -32 -72 -38 -58 -15 24 39 186
113 186 84z m-50 -57 c0 -5 -55 -35 -65 -35 -13 0 8 22 29 30 25 10 36 12 36
5z m-1165 -24 c115 -41 195 -134 195 -228 0 -93 -47 -158 -133 -187 -59 -20
-107 -20 -177 -2 -153 40 -233 142 -210 266 26 138 170 205 325 151z m-355
-23 c25 -41 16 -50 -16 -15 -14 15 -34 27 -45 27 -11 0 -17 5 -14 10 14 22 55
10 75 -22z m1179 -7 c11 -7 10 -10 -5 -14 -57 -16 -203 -28 -304 -25 -108 3
-113 4 -85 17 27 13 65 17 323 29 32 1 63 -2 71 -7z m-1221 -17 c25 -17 27
-32 11 -68 -11 -24 -13 -25 -42 -9 -21 10 -44 13 -74 9 -24 -3 -43 -2 -43 2 0
4 14 24 31 45 34 41 77 49 117 21z m1826 -13 c3 -5 -5 -16 -18 -24 -13 -9 -35
-40 -50 -68 -44 -88 -30 -201 32 -265 l21 -22 -127 -4 c-74 -3 -157 -12 -200
-23 -53 -13 -78 -16 -95 -8 -117 53 -187 88 -207 103 -21 16 -22 20 -10 35 18
21 282 178 358 212 103 47 186 72 239 72 28 1 54 -3 57 -8z m-1182 -41 c46
-23 90 -45 98 -50 8 -6 56 -33 105 -61 50 -28 106 -61 125 -72 19 -11 102 -57
184 -103 82 -46 156 -90 166 -99 9 -8 26 -15 36 -15 11 0 33 -13 49 -30 54
-56 43 -185 -25 -292 -28 -45 -99 -95 -114 -81 -12 12 -6 64 10 89 12 18 13
24 4 22 -9 -2 -17 16 -25 52 -23 108 -72 177 -156 219 -55 27 -72 31 -146 31
-75 0 -95 -4 -196 -44 -62 -24 -148 -56 -193 -71 l-81 -27 -74 53 c-98 71
-159 121 -159 130 0 4 17 3 38 -3 53 -15 160 -5 207 20 114 58 156 181 100
292 -13 27 -29 51 -35 55 -10 6 -14 25 -6 25 3 0 42 -18 88 -40z m640 6 c2
-17 -6 -22 -52 -31 -79 -17 -166 -44 -232 -71 -32 -13 -66 -24 -77 -24 -10 0
-57 23 -104 50 -47 28 -90 50 -96 50 -6 0 -11 6 -11 13 0 9 52 12 223 13 160
1 237 5 277 16 59 16 66 14 72 -16z m699 1 c57 -39 79 -81 79 -154 0 -78 -19
-124 -68 -161 -66 -51 -150 -33 -206 42 -30 39 -30 166 0 216 45 77 129 101
195 57z m-2026 -56 c17 -10 31 -27 33 -38 2 -17 -4 -22 -33 -27 -20 -4 -53
-23 -74 -41 -21 -19 -41 -32 -45 -28 -10 10 -7 93 5 114 20 39 68 47 114 20z
m1360 -26 c7 -20 7 -29 -1 -32 -6 -2 -51 -31 -99 -63 -48 -33 -91 -60 -96 -60
-14 0 -147 68 -153 79 -10 16 17 28 149 64 195 54 185 54 200 12z m-1305 -91
c0 -14 -10 -39 -21 -56 -12 -16 -24 -50 -27 -74 -2 -24 -10 -44 -16 -44 -14 0
-69 56 -85 86 -8 18 -6 28 12 55 27 40 60 59 105 59 28 0 32 -3 32 -26z m76
-100 c39 -77 144 -183 231 -233 39 -22 74 -41 77 -41 2 0 17 -5 31 -10 l26
-10 -21 -29 c-26 -38 -50 -105 -50 -142 0 -27 -2 -29 -27 -23 -158 39 -285
236 -308 478 -8 90 -1 92 41 10z m-74 -36 c6 -48 -3 -66 -20 -45 -12 14 -5 87
8 87 4 0 10 -19 12 -42z m166 -26 c34 -35 182 -152 192 -152 4 0 10 -6 13 -14
8 -21 -98 42 -154 92 -47 42 -97 102 -84 102 3 0 18 -13 33 -28z m1685 -57
c39 -16 12 -25 -85 -27 l-103 -2 115 -6 c131 -7 182 -25 212 -77 11 -17 15
-33 11 -36 -4 -2 -44 2 -88 10 -55 10 -118 13 -203 9 l-123 -5 6 32 c4 18 13
39 20 47 7 8 15 24 17 35 5 32 38 41 124 34 44 -3 87 -10 97 -14z m-231 9 c4
-3 -8 -33 -25 -67 -31 -61 -31 -65 -32 -207 0 -130 2 -150 23 -194 12 -27 20
-51 18 -53 -5 -6 -216 32 -280 50 l-49 14 39 28 c51 36 101 121 121 205 15 62
15 70 -2 124 -11 35 -15 60 -9 66 19 19 183 48 196 34z m-524 -71 c147 -84
163 -347 28 -458 -51 -41 -68 -43 -37 -3 102 130 71 376 -60 474 l-34 25 30
-7 c17 -3 49 -17 73 -31z m-141 12 c127 -38 195 -213 147 -375 -55 -186 -187
-240 -453 -183 l-73 16 7 51 c4 28 10 126 14 219 5 92 11 170 14 173 6 6 129
63 207 95 56 22 73 23 137 4z m1103 -53 c28 -29 49 -62 53 -82 12 -58 7 -134
-12 -175 -55 -121 -158 -174 -366 -189 l-80 -6 62 14 c87 20 148 50 207 100
108 92 149 244 91 344 -32 56 -12 53 45 -6z m-97 -70 c42 -19 47 -24 47 -53 0
-29 -2 -31 -27 -25 -52 10 -330 19 -335 10 -4 -5 46 -9 114 -10 87 -1 134 -6
174 -20 58 -19 63 -27 38 -62 -15 -21 -20 -22 -199 -22 -101 0 -186 3 -188 8
-2 4 -7 23 -11 44 -6 33 -4 37 21 46 25 9 26 10 6 11 -20 1 -23 6 -23 41 0 56
16 61 190 57 122 -3 153 -7 193 -25z m-1391 1 c5 -26 -12 -345 -20 -376 l-7
-28 -41 29 c-78 57 -109 131 -92 224 12 68 47 116 107 148 45 24 49 24 53 3z
m1276 -210 c45 -3 82 -9 82 -12 0 -3 -17 -18 -38 -33 -35 -24 -47 -26 -159
-30 -67 -1 -124 0 -128 3 -3 4 -9 23 -12 43 l-6 36 89 0 c49 0 126 -3 172 -7z
m-93 -112 c-42 -17 -104 -19 -116 -5 -10 12 0 14 62 13 47 0 67 -3 54 -8z"/>
<path d="M3187 4363 c-4 -3 -7 -13 -7 -22 1 -13 3 -13 11 2 11 19 8 33 -4 20z"/>
<path d="M3586 3978 c-14 -19 -14 -24 -2 -36 11 -11 17 -12 35 -1 11 8 23 20
26 27 14 36 -35 44 -59 10z m44 -3 c0 -2 -10 -10 -22 -16 -21 -11 -22 -11 -9
4 13 16 31 23 31 12z"/>
<path d="M3382 2845 c0 -16 2 -22 5 -12 2 9 2 23 0 30 -3 6 -5 -1 -5 -18z"/>
</g>
</svg>
